<?xml version="1.0" encoding="iso-8859-1"?>
<!-- Uploaded to: SVG Repo, www.svgrepo.com, Generator: SVG Repo Mixer Tools -->
<svg height="800px" width="800px" version="1.1" id="Layer_1" xmlns="http://www.w3.org/2000/svg" xmlns:xlink="http://www.w3.org/1999/xlink" 
	 viewBox="0 0 512 512" xml:space="preserve">
<ellipse style="fill:#878791;" cx="256" cy="235.39" rx="72" ry="40"/>
<g>
	<path style="fill:#7C665D;" d="M503.536,325.893C498.636,229.009,456,168,456,168c-6.265-75.177-34.605-99.454-56.21-111.732
		c-6.231-5.649-11.798-9.467-15.781-11.658l-8,16c0,0-16.009-25.22-56-32V32c-0.003,0-0.006,0-0.009,0v12.602
		c-0.186-0.195-24.156-25.237-63.991-31.991H256h-0.009C216.156,19.364,192.186,44.406,192,44.602V32c-0.003,0-0.006,0-0.009,0
		v-3.39c-39.991,6.78-56,32-56,32l-8-16c-3.983,2.19-9.549,6.009-15.781,11.658C90.605,68.546,62.265,92.823,56,168
		c0,0-42.636,61.009-47.536,157.893C8.163,329.936,8,333.967,8,337.978c0,0.607,0.022,1.203,0.029,1.807
		C8.013,341.184,8,342.587,8,344c0,33.981,11.446,59.691,29.492,78.829C70.333,465,172,473,172,473s29,25,84,25
		c46.333,0,84-24,84-24s88.668-5.331,134.508-51.171C509.667,385,503.837,329.936,503.536,325.893z"/>
	<path style="fill:#7C665D;" d="M328,416c-2.743-2.216-5.036-4.49-6.985-6.85c-11.577,10.786-36.335,18.24-65.015,18.24
		s-53.438-7.454-65.015-18.239c-1.949,2.359-4.242,4.634-6.985,6.85c-4.522,3.653-13.76,6.809-23.87,8.496
		C163.536,460.701,171.7,495,255.991,495c84.293,0,92.456-34.301,95.862-70.507C341.749,422.805,332.52,419.651,328,416z"/>
</g>
<path style="fill:#9A8C88;" d="M376,195c0,64.065-53.726,116-120,116s-120-51.935-120-116c0-64.064,36.053-116,120-116
	S376,130.936,376,195z"/>
<path style="fill:#C0C0C6;" d="M321.015,409.15c-11.577,10.786-36.335,18.24-65.015,18.24s-53.438-7.454-65.015-18.239
	c-1.949,2.359-4.242,4.634-6.985,6.85c-4.522,3.653-13.76,6.809-23.87,8.496C163.536,460.701,171.7,495,255.991,495
	c84.293,0,92.456-34.301,95.862-70.507C341.749,422.805,332.52,419.651,328,416C325.257,413.784,322.964,411.51,321.015,409.15z"/>
<path style="fill:#878791;" d="M321.015,409.15C310.651,396.601,310.081,381.621,304,360c-9-32-48-30.097-48-61.211
	C256,329.903,217,328,208,360c-6.081,21.621-6.65,36.601-17.015,49.15c11.578,10.786,36.335,18.24,65.015,18.24
	S309.438,419.936,321.015,409.15z"/>
<path style="fill:#FFFFFF;" d="M256.782,305.929c-0.498,1.739-0.782,3.567-0.782,5.461c0-1.894-0.284-3.721-0.782-5.461
	c-4.373,18.892-26.197,23.382-39.218,38.937v38.524c0,11,9,20,20,20s20-9,20-20c0,11,9,20,20,20s20-9,20-20v-38.524
	C282.979,329.312,261.154,324.82,256.782,305.929z"/>
<path style="fill:#D3D3D7;" d="M256,128c-64.6,0-144,37.333-144,208c0,38.473,5.352,72.938,8,80
	c3.759,10.023,23.173,11.325,40.13,8.496c10.11-1.687,19.348-4.843,23.87-8.496c2.743-2.216,5.036-4.49,6.985-6.85
	C201.35,396.601,201.919,381.621,208,360c1.726-6.135,4.556-11.021,8-15.134c13.021-15.554,34.846-20.045,39.218-38.937
	c0.504-2.177,0.782-4.541,0.782-7.14c0,2.599,0.278,4.963,0.782,7.14c4.373,18.891,26.197,23.382,39.218,38.937
	c3.444,4.114,6.275,9,8,15.134c6.081,21.621,6.651,36.601,17.015,49.15c1.949,2.359,4.242,4.634,6.985,6.85
	c4.52,3.651,13.749,6.805,23.853,8.493c16.96,2.833,36.387,1.534,40.147-8.493c2.648-7.063,8-41.527,8-80
	C400,165.333,320.6,128,256,128z"/>
<path style="fill:#464655;" d="M310,223c-13.812,1.17-41.027,7-55,7c-13.469,0-54-8-54-8c-9.453,0-24,4.547-24,14v4
	c0,7.614,12.053,18.728,19.339,20.937c12.829,3.889,32.994,2.858,47.231,18.063c3.368,3.597,7.898,7,12.429,7
	c4.532,0,8.891-7.282,13-10c9.757-6.452,31.409-9.983,41.946-15.063C316.28,258.365,329.241,248.745,332,245
	c2.831-3.843,2.129-12.008,0-15C328.779,225.474,315.67,222.52,310,223z"/>
<path d="M463.784,165.242c-8.09-89.957-48.432-110.312-70.187-121.28c-2.084-1.05-4.052-2.042-5.742-2.972
	c-2.052-1.128-4.497-1.302-6.688-0.472s-3.908,2.577-4.699,4.783c-0.814,2.272-1.728,4.626-2.592,6.715
	c-0.465-0.386-0.936-0.777-1.41-1.171C358.081,38.885,340.177,24,320,24c-4.418,0-8,3.582-8,8v0.816C296.65,22.789,271.399,8,256,8
	s-40.65,14.789-56,24.816V32c0-4.418-3.582-8-8-8c-20.177,0-38.081,14.885-52.467,26.844c-0.474,0.394-0.944,0.785-1.41,1.171
	c-0.864-2.089-1.777-4.442-2.593-6.716c-0.791-2.205-2.508-3.952-4.699-4.781c-2.19-0.828-4.634-0.657-6.687,0.472
	c-1.69,0.93-3.658,1.922-5.742,2.972C96.648,54.93,56.307,75.285,48.216,165.242C40.423,177.145,0,243.73,0,344
	c0,23.684,5.334,44.928,15.854,63.14c9.442,16.348,23.094,30.327,40.574,41.549c28.345,18.196,67.838,29.313,111.205,31.303
	c0.125,0.006,0.249,0.008,0.373,0.008c0.918,0,1.8-0.165,2.625-0.453c14.058,13.231,39.135,22.294,84.994,24.444
	c0.12,0.005,0.238,0.008,0.357,0.009c0.004,0,0.007,0,0.011,0c0.002,0,0.004,0,0.006,0c0.002,0,0.004,0,0.006,0
	c0.004,0,0.007,0,0.011,0c0.119-0.001,0.237-0.003,0.357-0.009c45.859-2.149,70.936-11.213,84.994-24.444
	c0.825,0.288,1.707,0.453,2.625,0.453c0.124,0,0.248-0.003,0.373-0.008c43.367-1.99,82.86-13.106,111.205-31.303
	c17.48-11.222,31.132-25.201,40.574-41.549C506.666,388.928,512,367.684,512,344C512,243.73,471.577,177.145,463.784,165.242z
	 M256,487.99c-82.643-3.952-85.268-29.624-88.042-56.802c-0.004-0.035-0.012-0.07-0.017-0.106c8.058-1.871,15.273-4.641,20.01-8.045
	C208.861,439.801,254.049,440,256,440c1.951,0,47.139-0.199,68.048-16.964c4.737,3.404,11.952,6.174,20.009,8.046
	c-0.004,0.036-0.012,0.07-0.016,0.105C341.268,458.366,338.643,484.038,256,487.99z M256,136c37.335,0,67.72,12.579,90.31,37.386
	C376.627,206.681,392,261.392,392,336c0,37.75-5.25,71.218-7.491,77.191c-0.35,0.934-2.049,2.292-5.767,3.306
	c-14.139,3.856-39.192-1.451-45.715-6.721c-11.128-8.988-13.379-18.774-17.109-34.99c-1.16-5.042-2.475-10.758-4.217-16.953
	c-5.084-18.077-18.388-27.109-29.078-34.367C270.729,315.392,264,310.264,264,298.79c0-0.225-0.016-0.446-0.034-0.666
	c0.018-0.221,0.034-0.441,0.034-0.666c0-13.122,5.593-15.69,34.131-22.968c38.904-9.921,44.165-28.056,44.621-35.394
	c0.569-9.16-4.753-17.31-13.561-20.766c-12.667-4.969-33.364-0.917-51.626,2.66c-8.727,1.709-16.971,3.322-21.565,3.322
	s-12.838-1.613-21.565-3.322c-18.262-3.575-38.96-7.628-51.626-2.66c-8.808,3.456-14.13,11.606-13.561,20.766
	c0.456,7.337,5.717,25.472,44.622,35.394c28.537,7.278,34.13,9.847,34.13,22.968c0,0.225,0.016,0.445,0.034,0.666
	c-0.018,0.22-0.034,0.441-0.034,0.666c0,11.474-6.729,16.602-18.623,24.677c-10.69,7.258-23.994,16.29-29.078,34.367
	c-1.742,6.195-3.057,11.91-4.217,16.953c-3.729,16.215-5.981,26.002-17.109,34.99c-6.523,5.269-31.575,10.579-45.715,6.721
	c-3.718-1.014-5.417-2.373-5.767-3.306C125.25,407.218,120,373.75,120,336c0-74.608,15.373-129.319,45.69-162.614
	C188.28,148.579,218.665,136,256,136z M256,344c-4.418,0-8,3.582-8,8v71.712c-13.984-0.874-37.171-3.972-48.761-12.201
	c7.084-9.89,9.623-20.907,12.436-33.138c1.174-5.104,2.388-10.383,4.026-16.207c3.502-12.453,12.81-18.772,22.663-25.462
	c6.138-4.167,12.69-8.622,17.636-14.714c4.946,6.092,11.498,10.547,17.636,14.714c9.854,6.689,19.161,13.009,22.663,25.462
	c1.638,5.824,2.852,11.103,4.026,16.207c2.813,12.23,5.352,23.248,12.436,33.138c-11.59,8.229-34.777,11.327-48.761,12.201V352
	C264,347.582,260.418,344,256,344z M256,240.313c6.146,0,14.716-1.678,24.64-3.62c14.511-2.841,34.384-6.732,42.708-3.467
	c1.097,0.43,3.629,1.768,3.436,4.877c-0.295,4.744-7.494,14.479-32.606,20.884c-16.447,4.194-30.084,7.683-38.176,15.912
	c-8.092-8.229-21.729-11.718-38.177-15.913c-25.112-6.404-32.311-16.14-32.606-20.883c-0.193-3.109,2.338-4.447,3.436-4.877
	c8.324-3.266,28.197,0.626,42.708,3.467C241.284,238.635,249.854,240.313,256,240.313z M446.928,435.225
	c-24.022,15.422-57.149,25.313-94.052,28.204c4.167-9.117,5.896-19.271,7.012-29.948c2.416,0.18,4.816,0.276,7.161,0.276
	c5.832,0,11.331-0.576,15.904-1.823c10.695-2.917,14.896-8.748,16.538-13.124C402.96,409.558,408,372.699,408,336
	c0-187.938-95.233-216-152-216s-152,28.062-152,216c0,36.699,5.04,73.558,8.509,82.81c1.642,4.376,5.843,10.207,16.538,13.124
	c4.574,1.247,10.07,1.823,15.904,1.823c2.345,0,4.746-0.096,7.161-0.276c1.117,10.677,2.845,20.831,7.012,29.948
	c-36.903-2.891-70.03-12.782-94.052-28.204C32.51,414.321,16,383.628,16,344c0-103.311,46.096-170.754,46.557-171.416
	c0.03-0.043,0.054-0.089,0.083-0.133c0.097-0.145,0.189-0.292,0.277-0.443c0.047-0.08,0.092-0.161,0.136-0.242
	c0.076-0.142,0.146-0.286,0.214-0.433c0.044-0.097,0.088-0.193,0.128-0.29c0.054-0.13,0.102-0.263,0.149-0.397
	c0.041-0.116,0.081-0.231,0.116-0.348s0.064-0.235,0.093-0.353c0.035-0.137,0.068-0.273,0.095-0.411
	c0.021-0.104,0.035-0.209,0.052-0.314c0.023-0.152,0.045-0.305,0.06-0.458c0.003-0.033,0.01-0.064,0.013-0.096
	c6.7-80.4,39.182-99.028,59.802-109.49c3.225,7.665,5.41,11.31,9.608,12.552c2.559,0.758,5.351,0.249,7.466-1.363
	c2.792-2.126,5.765-4.599,8.913-7.216C159.891,54.726,172.044,44.623,184,41.2V48c0,3.009,1.688,5.763,4.369,7.128
	c2.681,1.366,5.901,1.112,8.335-0.657C212.913,42.69,243.344,24,256,24s43.087,18.69,59.295,30.471
	c2.435,1.769,5.655,2.023,8.335,0.657C326.312,53.763,328,51.009,328,48v-6.8c11.956,3.423,24.109,13.526,34.239,21.947
	c3.148,2.617,6.122,5.089,8.914,7.216c2.115,1.611,4.905,2.121,7.465,1.363c4.198-1.242,6.383-4.887,9.608-12.552
	c20.621,10.462,53.102,29.09,59.802,109.49c0.003,0.032,0.01,0.063,0.013,0.096c0.015,0.154,0.037,0.306,0.061,0.458
	c0.016,0.105,0.031,0.21,0.051,0.313c0.027,0.139,0.061,0.276,0.096,0.414c0.029,0.117,0.058,0.234,0.092,0.35
	c0.036,0.118,0.077,0.235,0.118,0.353c0.046,0.132,0.094,0.264,0.147,0.393c0.041,0.099,0.085,0.197,0.13,0.294
	c0.067,0.145,0.136,0.288,0.211,0.428c0.044,0.083,0.09,0.165,0.138,0.248c0.087,0.149,0.18,0.296,0.276,0.439
	c0.029,0.044,0.053,0.09,0.083,0.134C449.909,173.25,496,240.384,496,344C496,383.628,479.49,414.321,446.928,435.225z"/>
<path d="M88,168c-9.271,0-16,10.093-16,24s6.729,24,16,24s16-10.093,16-24S97.271,168,88,168z"/>
<path d="M424,168c-9.271,0-16,10.093-16,24s6.729,24,16,24s16-10.093,16-24S433.271,168,424,168z"/>
<path d="M278.132,452.808C269.427,454.896,261.774,456,256,456s-13.427-1.104-22.132-3.192c-4.298-1.03-8.615,1.617-9.646,5.913
	c-1.031,4.297,1.617,8.615,5.913,9.646C240.186,470.777,248.888,472,256,472s15.814-1.223,25.865-3.634
	c4.296-1.031,6.944-5.349,5.913-9.646C286.747,454.425,282.428,451.778,278.132,452.808z"/>
</svg>