<?xml version="1.0" encoding="iso-8859-1"?>
<!-- Uploaded to: SVG Repo, www.svgrepo.com, Generator: SVG Repo Mixer Tools -->
<svg height="800px" width="800px" version="1.1" id="Layer_1" xmlns="http://www.w3.org/2000/svg" xmlns:xlink="http://www.w3.org/1999/xlink" 
	 viewBox="0 0 511.999 511.999" xml:space="preserve">
<path style="fill:#AA6941;" d="M413.332,198.706l0.741-0.536L416,200l40,8c0-46-40-104-40-104h32c-24-32-72-40-72-40l24-16
	c-37-20-96-8-96-8s8.667-32,8-32c-25.333,0-56,26-56,40c0-14-30.667-40-56-40c-0.667,0,8,32,8,32s-59-12-96,8l24,16c0,0-48,8-72,40
	h32c0,0-40,58-40,104l40-8l1.51-1.434l1.181,0.114C63.334,237.024,48,289.499,48,352l24-8.001
	C75.761,396.036,89.679,447.633,104,464c0,0,15.626-24.552,16-24c26.667,39.333,64,56,64,56s7.307-24.64,8-24c26,24,64,32,64,32
	s38-8,64-32c0.693-0.64,8,24,8,24s37.333-16.667,64-56c0.374-0.552,16,24,16,24c14.321-16.367,28.239-67.964,32-120.001L464,352
	C464,289.512,448.672,237.046,413.332,198.706z"/>
<g>
	<path style="fill:#FFB94B;" d="M328.002,355.25C328.002,329,360,263,360,216c0-55.014-26.517-90.778-64.212-105.017l0.006,0.008
		C272.667,102.667,256,115.333,256,136v16v-16c0-20.667-16.667-33.333-39.794-25.008l-0.688,0.256
		C178.191,125.662,152,161.324,152,216c0,48,32.021,111,32.021,139.277"/>
	<path style="fill:#FFB94B;" d="M200,402.781C200,430.666,226.189,448,256,448s56-18.088,56-45.219L256,389L200,402.781z"/>
</g>
<path style="fill:#FFAB4B;" d="M327,372.254c0.326-3.726,0.5-7.799,0.5-12.254c0-7.35-2.12-15.788-5.391-24.43l-3.208-24.061
	C314.664,279.732,287.558,256,255.5,256l0,0c-32.058,0-59.164,23.732-63.401,55.509l-3.145,23.586
	C185.642,344.071,183.5,352.7,183.5,360c0,4.455,0.174,8.528,0.5,12.254L183.5,376h0.894c8.256,66.773,71.106,8,71.106,8l-2.105-8
	h4.381l-2.275,8c0,0,62.851,58.773,71.106-8h0.894L327,372.254z"/>
<path style="fill:#FFE187;" d="M287.333,327c-12.872,0-49.794,0-62.667,0c-21.631,0-39.167,17.909-39.167,40s17.536,40,39.167,40
	c12.873,0,24.194-6.427,31.333-16.219c7.14,9.792,18.461,16.219,31.333,16.219c21.631,0,39.167-17.909,39.167-40
	S308.964,327,287.333,327z"/>
<g>
	<path style="fill:#FFAB4B;" d="M104,192c-32.667-23.333-32-56-32-56s47.333-7.333,80,24"/>
	<path style="fill:#FFAB4B;" d="M408,192c32.667-23.333,32-56,32-56s-47.333-7.333-80,24"/>
</g>
<path d="M192,200c-8.822,0-16,7.178-16,16c0,8.823,7.178,16,16,16s16-7.177,16-16C208,207.178,200.822,200,192,200z"/>
<path d="M320,200c-8.822,0-16,7.178-16,16c0,8.823,7.178,16,16,16s16-7.177,16-16C336,207.178,328.822,200,320,200z"/>
<path d="M433.976,211.754l20.456,4.091c0.521,0.104,1.046,0.155,1.569,0.155c1.833,0,3.629-0.631,5.072-1.813
	c1.854-1.52,2.928-3.79,2.928-6.187c0-21.271-7.822-44.546-16.671-64.081c0.704-4.659,0.678-7.668,0.67-8.083
	c-0.08-3.883-2.936-7.148-6.774-7.742c-0.194-0.03-0.799-0.12-1.76-0.23c-3.205-6.088-6.285-11.468-8.918-15.865H448
	c3.03,0,5.8-1.712,7.155-4.422s1.063-5.954-0.755-8.377c-16.18-21.574-41.821-32.943-59.055-38.482l9.092-6.062
	c2.335-1.557,3.684-4.223,3.554-7.026c-0.129-2.803-1.718-5.333-4.187-6.668c-28.806-15.57-68.82-13.257-88.912-10.752
	c0.341-1.293,0.69-2.624,1.037-3.954c1.211-4.646,2.158-8.385,2.814-11.112c1.447-6.011,2.108-8.754-0.373-11.997
	C316.857,1.17,314.491,0,312,0c-20.906,0-44.106,14.42-56,29.569C244.106,14.42,220.906,0,200,0c-2.491,0-4.857,1.17-6.371,3.148
	c-2.481,3.243-1.82,5.986-0.373,11.997c0.657,2.727,1.604,6.466,2.814,11.112c0.347,1.33,0.696,2.66,1.037,3.954
	c-20.092-2.504-60.108-4.816-88.912,10.752c-2.469,1.334-4.058,3.865-4.187,6.668c-0.13,2.803,1.219,5.469,3.554,7.026l9.092,6.062
	C99.421,66.257,73.78,77.626,57.6,99.2c-1.818,2.423-2.111,5.667-0.755,8.377C58.2,110.288,60.97,112,64,112h17.454
	c-2.633,4.397-5.713,9.776-8.918,15.865c-0.962,0.11-1.566,0.2-1.76,0.23c-3.838,0.594-6.694,3.859-6.774,7.742
	c-0.008,0.414-0.034,3.424,0.67,8.083C55.822,163.454,48,186.729,48,208c0,2.396,1.075,4.667,2.928,6.187
	C52.371,215.369,54.167,216,56,216c0.522,0,1.048-0.051,1.569-0.155l20.456-4.091C52.743,247.944,40,294.797,40,352
	c0,2.571,1.236,4.986,3.322,6.491c2.087,1.503,4.769,1.912,7.208,1.099l14.353-4.786c4.864,50.49,18.333,97.591,33.096,114.464
	c1.659,1.897,4.121,2.902,6.628,2.709c2.513-0.192,4.789-1.556,6.142-3.682c3.162-4.967,6.583-10.271,9.384-14.54
	c26.695,34.134,59.124,48.888,60.605,49.55c2.104,0.939,4.512,0.926,6.605-0.038c2.094-0.964,3.67-2.783,4.326-4.993
	c1.263-4.258,2.691-8.928,3.953-12.91c26.1,19.417,57.264,26.155,58.729,26.463c0.543,0.115,1.096,0.172,1.648,0.172
	c0.552,0,1.104-0.057,1.648-0.172c1.465-0.308,32.63-7.047,58.729-26.463c1.262,3.982,2.69,8.651,3.953,12.91
	c0.655,2.21,2.232,4.029,4.326,4.993c2.094,0.963,4.5,0.978,6.605,0.038c1.481-0.662,33.91-15.416,60.605-49.55
	c2.801,4.269,6.223,9.573,9.384,14.54c1.353,2.126,3.629,3.49,6.142,3.682c2.511,0.192,4.969-0.813,6.628-2.709
	c14.763-16.873,28.232-63.974,33.096-114.464l14.353,4.786c2.438,0.813,5.121,0.404,7.208-1.099
	c2.086-1.504,3.322-3.919,3.322-6.491C472,294.797,459.257,247.944,433.976,211.754z M329.058,314.261
	c-1.48-6.327-3.192-13.093-5.143-20.308c-3.243-11.999-6.311-22.133-8.313-28.522c-1.045-3.334-2.054-6.454-2.842-8.781
	c-1.393-4.121-2.234-6.608-5.692-8.041c-2.989-1.239-6.434-0.554-8.722,1.732c-2.493,2.491-2.999,6.217-1.517,9.209
	C298.99,265.365,320,330.53,320,360c0,21.625-4.353,35.428-12.257,38.865c-12.172,5.297-34.04-10.17-43.743-18.456V376
	c0-8.822,7.178-16,16-16c4.418,0,8-3.582,8-8s-3.582-8-8-8h-48c-4.418,0-8,3.582-8,8s3.582,8,8,8c8.822,0,16,7.178,16,16v4.42
	c-10.886,9.353-32.26,23.429-43.735,18.449C196.356,395.437,192,381.633,192,360c0-29.47,21.01-94.635,23.171-100.45
	c1.482-2.992,0.976-6.719-1.517-9.209c-2.289-2.286-5.732-2.971-8.722-1.732c-3.458,1.433-4.299,3.92-5.692,8.041
	c-0.788,2.328-1.796,5.447-2.842,8.781c-2.003,6.389-5.071,16.523-8.313,28.522c-1.91,7.066-3.588,13.697-5.048,19.91
	c-1.351-4.335-2.786-8.816-4.268-13.438C169.971,272.995,160,241.905,160,216c0-22.526,4.796-42.338,13.78-58.477
	c0.873-0.915,1.514-2.017,1.875-3.213c9.94-16.28,24.377-28.507,42.662-35.567l0.598-0.225c8.677-3.123,16.393-2.779,21.727,0.97
	c4.745,3.335,7.358,9.2,7.358,16.512v16c0,4.418,3.582,8,8,8c4.418,0,8-3.582,8-8v-16c0-7.313,2.613-13.177,7.358-16.511
	c5.334-3.749,13.05-4.093,21.727-0.97c0.051,0.019,0.102,0.037,0.153,0.054c18.501,7.054,33.084,19.33,43.099,35.711
	c0.364,1.219,1.016,2.344,1.911,3.271C347.22,173.682,352,193.478,352,216c0,25.663-10.133,57.686-19.072,85.938
	C331.59,306.166,330.289,310.279,329.058,314.261z M298.138,261.431c-0.069-0.075-0.137-0.148-0.202-0.225
	C298.001,261.283,298.07,261.356,298.138,261.431z M256,394.59c9.347,7.664,28.479,21.304,46.293,21.304
	c0.113,0,0.226-0.007,0.338-0.008C297.201,431.127,276.308,440,256,440c-20.128,0-41.336-8.398-46.699-24.116
	c0.136,0.001,0.27,0.009,0.406,0.009C227.519,415.891,246.652,402.254,256,394.59z M213.859,261.433
	c0.068-0.074,0.137-0.147,0.201-0.223C213.996,261.286,213.929,261.358,213.859,261.433z M104.185,182.048
	c-14.954-12.377-20.67-26.629-22.847-35.932c0.452-0.95,0.906-1.889,1.36-2.816c12.445-0.172,34.971,1.683,54.373,14.885
	C124.989,165.165,114.024,173.121,104.185,182.048z M429.317,143.299c0.45,0.919,0.9,1.851,1.348,2.791
	c-2.174,9.313-7.887,23.574-22.85,35.958c-9.839-8.927-20.805-16.883-32.887-23.863
	C394.344,144.974,416.886,143.126,429.317,143.299z M447.386,198.119l-27.356-5.471c9.297-8.154,15.52-16.937,19.663-25.112
	C443.329,177.603,446.187,188.058,447.386,198.119z M137.315,71.891c3.238-0.54,5.818-3.002,6.507-6.212
	c0.689-3.209-0.653-6.514-3.384-8.335l-11.576-7.718c33.575-10.454,77.053-1.886,77.544-1.786c2.719,0.553,5.531-0.343,7.429-2.367
	c1.898-2.024,2.613-4.887,1.887-7.565c-1.891-6.981-3.873-14.482-5.37-20.336c7.282,2.06,15.108,6.064,22.301,11.542
	C243.239,37.177,248,45.011,248,48c0,4.418,3.582,8,8,8c4.418,0,8-3.582,8-8c0-2.989,4.761-10.823,15.347-18.885
	c7.193-5.478,15.019-9.482,22.301-11.542c-1.497,5.854-3.479,13.354-5.37,20.336c-0.726,2.678-0.011,5.541,1.887,7.565
	s4.71,2.918,7.429,2.367c0.494-0.102,43.928-8.709,77.55,1.782l-11.582,7.721c-2.729,1.819-4.066,5.121-3.382,8.327
	c0.685,3.207,3.262,5.672,6.495,6.219c0.375,0.063,31.497,5.527,54.441,24.11H416c-2.973,0-5.701,1.648-7.083,4.281
	c-1.382,2.632-1.19,5.814,0.498,8.261c0.138,0.201,5.154,7.54,11.526,18.853c-16.797,0.865-41.125,5.483-61.7,22.57
	c-2.986-1.414-6.03-2.777-9.134-4.088c-11.84-19.408-29.276-33.986-51.492-42.378c-0.142-0.053-0.285-0.103-0.429-0.148
	c-13.6-4.808-26.384-3.729-36.027,3.048c-2.314,1.626-4.374,3.548-6.158,5.718c-1.784-2.17-3.844-4.092-6.158-5.718
	c-9.718-6.83-22.626-7.872-36.436-2.901l-0.77,0.288c-21.843,8.435-39.019,22.902-50.727,42.085
	c-3.109,1.313-6.159,2.678-9.15,4.095c-20.571-17.083-44.893-21.704-61.689-22.569c6.367-11.312,11.377-18.652,11.515-18.854
	c1.688-2.447,1.879-5.629,0.498-8.261C101.701,97.648,98.973,96,96,96H82.883C105.828,77.417,136.948,71.953,137.315,71.891z
	 M72.315,167.551c4.144,8.17,10.365,16.948,19.656,25.097l-27.354,5.471C65.817,188.068,68.677,177.618,72.315,167.551z
	 M442.53,336.409c-2.343-0.78-4.916-0.436-6.971,0.935s-3.361,3.614-3.539,6.078c-3.32,45.93-13.843,85.998-23.981,105.845
	c-0.352-0.542-0.706-1.088-1.061-1.633c-2.298-3.529-4.165-6.352-5.55-8.387c-3.051-4.485-4.892-7.192-9.294-7.256
	c-2.707-0.053-5.245,1.29-6.756,3.519c-17.694,26.1-40.589,41.838-52.551,48.85c-0.271-0.877-0.55-1.773-0.832-2.668
	c-4.186-13.327-5.057-16.102-9.829-17.416c-2.663-0.732-5.562-0.029-7.593,1.845c-21.06,19.44-51.256,27.843-58.58,29.662
	c-7.333-1.81-37.434-10.153-58.569-29.662c-2.03-1.874-4.926-2.577-7.592-1.845c-4.771,1.313-5.643,4.088-9.829,17.416
	c-0.281,0.895-0.56,1.791-0.832,2.667c-11.967-7.014-34.859-22.752-52.551-48.848c-1.512-2.23-4.033-3.544-6.756-3.52
	c-4.402,0.064-6.244,2.771-9.294,7.256c-1.386,2.036-3.252,4.858-5.55,8.387c-0.355,0.545-0.709,1.091-1.061,1.633
	c-10.138-19.848-20.661-59.915-23.981-105.845c-0.178-2.464-1.484-4.707-3.539-6.078c-2.054-1.371-4.626-1.716-6.971-0.935
	l-13.303,4.436c2.525-83.338,33.791-139.977,95.22-172.329C146.537,182.75,144,198.686,144,216
	c0,28.408,10.377,60.765,19.533,89.312c6.422,20.024,12.488,38.938,12.488,49.965c0,0.348,0.03,0.688,0.073,1.024
	C176.038,357.583,176,358.829,176,360c0,25.418,5.273,41.912,16.067,50.128c0.683,13.438,7.816,25.363,20.286,33.758
	C223.957,451.699,239.457,456,256,456c35.532,0,62.545-19.574,63.933-45.872C330.727,401.911,336,385.418,336,360
	c0-1.143-0.036-2.358-0.089-3.606c0.054-0.374,0.091-0.754,0.091-1.145c0-9.991,5.917-28.688,12.18-48.483
	C357.471,277.408,368,244.134,368,216c0-17.316-2.528-33.248-7.367-47.474c61.416,32.353,92.676,88.989,95.2,172.318L442.53,336.409
	z"/>
</svg>